:SAMPLES-PER-SECOND 30
:FULLY-SPECIFIED
:DEGREES
322
root  10.4665 34.7548 8.5847 -179.105 17.5276 177.332
RightUpLeg  -28.3051 -9.91509 -24.3373
RightLeg  39.0842 -2.94324 -2.80211
RightFoot  -5.73279 -0.611047 12.0334
RightToes  -3.0268e-009 0 -3.6325e-017
Spine  30.1688 1.13149 -9.91392
Spine1  3.27128 -3.437 8.98758
HEad  -25.2549 -26.4422 12.7888
LeftShoulder1  0.0401191 3.3957 -31.0978
LeftArm  17.7957 -2.89156 -50.7602
LeftForeArm  122.553 -79.6946 -111.768
LeftHand  -0.0478531 3.65737 2.30831
RightShoulder  -1.0457 -6.3811 29.8022
RightArm  4.81938 -14.2507 34.5663
RightForeArm  38.6833 71.6831 31.577
RightHand  -0.532794 5.20089 -6.13355
LeftUpLeg  -30.6049 -10.9051 10.9283
LeftLeg  51.2777 -5.82913 -7.289
LeftFoot  -23.3058 -0.175151 -3.00064
LeftToes  2.52475e-009 -1.26109e-010 3.16044e-011
323
root  11.984 34.1618 8.93869 -179.293 18.0459 175.915
RightUpLeg  -32.7281 -10.8719 -23.6343
RightLeg  46.92 -1.58588 -2.16146
RightFoot  -8.97223 -0.364821 13.9162
RightToes  -3.0268e-009 0 -3.6325e-017
Spine  30.5012 1.09369 -10.9136
Spine1  3.47855 -3.61538 8.27424
HEad  -27.6471 -25.6548 13.4085
LeftShoulder1  0.0567775 3.35313 -31.6181
LeftArm  18.4831 -2.82029 -50.0694
LeftForeArm  121.17 -79.6601 -111.479
LeftHand  -0.0512607 3.25473 1.90576
RightShoulder  -1.03881 -6.35416 29.8851
RightArm  5.74293 -15.8358 35.8703
RightForeArm  28.9628 64.8103 21.6124
RightHand  -0.598417 5.58384 -6.63909
LeftUpLeg  -30.9869 -11.0649 12.5502
LeftLeg  52.3461 -5.48057 -7.1123
LeftFoot  -24.7545 -0.456064 -5.148
LeftToes  2.52475e-009 -1.26109e-010 3.16044e-011
324
root  13.3487 33.8259 9.17294 -179.402 19.1743 175.728
RightUpLeg  -35.7196 -10.6676 -21.242
RightLeg  52.0779 -1.13929 -1.95744
RightFoot  -11.1932 -0.0861015 10.387
RightToes  -3.0268e-009 0 -3.6325e-017
Spine  30.6716 0.507483 -9.37009
Spine1  3.70533 -3.61544 7.25283
HEad  -29.0859 -25.6915 12.9218
LeftShoulder1  0.130489 3.15735 -31.5578
LeftArm  19.0174 -2.40274 -50.021
LeftForeArm  119.269 -79.7535 -109.841
LeftHand  -0.0572623 3.58218 2.55884
RightShoulder  -1.12065 -6.50169 30.8523
RightArm  8.44969 -16.2717 35.9543
RightForeArm  21.4129 56.7348 15.3489
RightHand  -0.559759 5.65753 -6.18835
LeftUpLeg  -30.0526 -11.0207 14.9385
LeftLeg  52.1891 -5.19162 -6.68211
LeftFoot  -25.6196 -0.731095 -7.04578
LeftToes  2.52475e-009 -1.26109e-010 3.16044e-011
325
root  14.7228 33.6092 9.27741 179.85 20.702 175.566
RightUpLeg  -36.7683 -9.81767 -19.0658
RightLeg  55.6435 -0.746194 -1.59567
RightFoot  -14.4088 0.151331 9.32683
RightToes  -3.0268e-009 0 -3.6325e-017
Spine  30.9093 0.341059 -8.32209
Spine1  3.40757 -3.54281 7.56979
HEad  -29.3343 -25.7466 11.7032
LeftShoulder1  0.0900884 3.26707 -31.9166
LeftArm  19.1998 -2.06388 -50.671
LeftForeArm  117.643 -80.0759 -105.988
LeftHand  -0.0572219 3.29992 2.27736
RightShoulder  -1.08938 -6.4051 30.9929
RightArm  12.437 -17.3191 35.5956
RightForeArm  14.8799 49.966 12.2182
RightHand  -0.537886 5.87331 -5.86883
LeftUpLeg  -27.8169 -10.8592 16.9225
LeftLeg  51.6977 -4.70281 -5.90993
LeftFoot  -25.5371 -0.995916 -9.25062
LeftToes  2.52475e-009 -1.26109e-010 3.16044e-011
326
root  15.9954 33.5429 9.33836 178.846 22.9217 174.83
RightUpLeg  -37.3042 -9.14096 -17.3562
RightLeg  57.9769 -0.100393 -0.648103
RightFoot  -16.7775 0.241025 7.46427
RightToes  -3.0268e-009 0 -3.6325e-017
Spine  30.8508 -0.159523 -7.15545
Spine1  2.96011 -3.30972 5.92912
HEad  -29.8947 -25.2234 11.3349
LeftShoulder1  0.0281005 3.43007 -32.0233
LeftArm  18.8038 -1.73946 -50.9726
LeftForeArm  117.43 -80.2212 -104.323
LeftHand  -0.0567499 3.3016 2.25023
RightShoulder  -1.15922 -6.51555 31.9495
RightArm  15.8585 -17.7858 35.0919
RightForeArm  10.8672 45.0737 10.4704
RightHand  -0.556423 6.92902 -5.57589
LeftUpLeg  -26.2104 -10.4814 17.7573
LeftLeg  52.7101 -3.09993 -3.88868
LeftFoot  -22.0856 -0.916807 -11.4528
LeftToes  2.52475e-009 -1.26109e-010 3.16044e-011
327
root  17.1733 33.7296 9.33061 178.407 25.3305 174.573
RightUpLeg  -37.0577 -8.21713 -15.1864
RightLeg  58.351 0.273898 0.00104203
RightFoot  -18.3255 0.208271 5.43405
RightToes  -3.0268e-009 0 -3.6325e-017
Spine  30.1545 -0.658903 -6.20999
Spine1  2.7337 -3.37956 5.48885
HEad  -30.9692 -24.3226 10.7105
LeftShoulder1  -0.0245249 3.56673 -32.6794
LeftArm  17.4686 -1.02926 -50.1384
LeftForeArm  117.218 -80.1836 -104.606
LeftHand  -0.0523471 3.35364 2.03647
RightShoulder  -1.13155 -6.43352 32.0683
RightArm  16.0622 -17.5911 35.7824
RightForeArm  11.3514 41.9465 9.319
RightHand  -0.507126 6.33007 -5.35097
LeftUpLeg  -26.516 -9.4613 18.2184
LeftLeg  55.721 -0.501196 -0.194011
LeftFoot  -13.4238 -0.242703 -9.66706
LeftToes  2.52475e-009 -1.26109e-010 3.16044e-011
328
root  18.2832 34.1358 9.23809 177.354 28.0889 174.311
RightUpLeg  -35.1794 -6.94911 -13.2727
RightLeg  57.2062 0.838795 0.942261
RightFoot  -19.3655 0.148418 3.97506
RightToes  -3.0268e-009 0 -3.6325e-017
Spine  29.2957 -0.834272 -5.69509
Spine1  3.09891 -3.30587 5.26399
HEad  -31.7805 -24.0548 10.2322
LeftShoulder1  -0.0682902 3.67719 -33.3329
LeftArm  15.2052 -0.90417 -49.7071
LeftForeArm  108.105 -80.5575 -93.6723
LeftHand  -0.0621177 3.12096 2.39182
RightShoulder  -1.16856 -6.51657 32.235
RightArm  14.4661 -15.8572 36.4677
RightForeArm  10.2035 39.5733 8.61781
RightHand  -0.540258 6.16792 -5.75115
LeftUpLeg  -26.9302 -8.14581 17.0865
LeftLeg  59.5903 1.79004 3.74524
LeftFoot  -3.78306 0.217269 -1.90668
LeftToes  2.52475e-009 -1.26109e-010 3.16044e-011
329
root  19.3214 34.7025 9.04181 176.266 32.0617 174.082
RightUpLeg  -32.6357 -4.50832 -11.4189
RightLeg  54.6338 1.50264 1.85679
RightFoot  -19.8277 0.0958951 3.09957
RightToes  -3.0268e-009 0 -3.6325e-017
Spine  28.2732 -0.779903 -5.05778
Spine1  3.04825 -2.7434 4.17556
HEad  -31.3921 -23.6904 9.0965
LeftShoulder1  -0.0928094 3.73928 -33.1987
LeftArm  12.0298 0.107531 -49.0528
LeftForeArm  92.5815 -80.3794 -74.9901
LeftHand  -0.0747572 3.06646 3.02984
RightShoulder  -1.25208 -6.69173 32.7327
RightArm  12.443 -12.7264 36.7618
RightForeArm  9.20275 37.9024 8.16678
RightHand  -0.52613 5.70369 -5.81728
LeftUpLeg  -26.3653 -6.32991 15.1243
LeftLeg  62.8678 0.150183 0.968891
LeftFoot  -5.04404 0.196406 -3.02094
LeftToes  2.52475e-009 -1.26109e-010 3.16044e-011
330
root  20.3128 35.3717 8.74457 175.596 35.694 174.144
RightUpLeg  -29.448 -2.36973 -9.56236
RightLeg  51.0944 2.32389 2.70683
RightFoot  -19.7482 0.0386098 2.3346
RightToes  -3.0268e-009 0 -3.6325e-017
Spine  27.0394 -0.789705 -4.23192
Spine1  2.71126 -2.40252 3.88343
HEad  -30.7841 -23.4905 7.11449
LeftShoulder1  -0.188069 3.97613 -33.7083
LeftArm  9.10788 0.798631 -47.496
LeftForeArm  70.3954 -78.1768 -50.9634
LeftHand  -0.0744979 3.32808 3.32057
RightShoulder  -1.29067 -6.78158 32.8341
RightArm  9.92746 -8.93207 37.0027
RightForeArm  9.80563 37.1942 7.91917
RightHand  -0.517306 6.1235 -5.53918
LeftUpLeg  -26.4305 -4.37171 12.1853
LeftLeg  65.2785 0.126304 1.00936
LeftFoot  -5.85283 0.176527 -2.93601
LeftToes  2.52475e-009 -1.26109e-010 3.16044e-011
331
root  21.2911 36.1357 8.39913 175.073 39.6142 173.851
RightUpLeg  -26.0745 -0.120042 -8.11718
RightLeg  46.614 3.42084 3.53468
RightFoot  -19.2018 -0.0338576 1.40557
RightToes  -3.0268e-009 0 -3.6325e-017
Spine  25.3286 -0.5846 -3.63117
Spine1  2.31397 -1.89798 3.36607
HEad  -29.8834 -22.6376 5.29759
LeftShoulder1  -0.191464 3.98274 -33.8585
LeftArm  6.60717 1.50744 -45.5931
LeftForeArm  52.0902 -73.3867 -33.0067
LeftHand  -0.0789451 3.18654 3.36762
RightShoulder  -1.18524 -6.58413 31.9414
RightArm  6.77304 -5.66143 38.2435
RightForeArm  12.2263 37.6874 7.91473
RightHand  -0.512335 6.33918 -5.39938
LeftUpLeg  -26.7328 -1.59951 8.34336
LeftLeg  65.1622 0.878157 2.76204
LeftFoot  -6.51871 0.148396 -2.60125
LeftToes  2.52475e-009 -1.26109e-010 3.16044e-011
332
root  22.3331 36.9027 8.02036 174.338 43.6942 173.716
RightUpLeg  -21.8103 2.59393 -6.62192
RightLeg  41.3946 4.6202 4.06547
RightFoot  -18.7937 -0.0322158 1.45717
RightToes  -3.0268e-009 0 -3.6325e-017
Spine  23.7958 -0.270718 -3.02729
Spine1  1.76587 -1.27643 2.62649
HEad  -28.3702 -21.8637 3.84521
LeftShoulder1  -0.251082 4.1334 -33.7271
LeftArm  5.01927 2.48265 -43.6799
LeftForeArm  41.2179 -67.0352 -22.5884
LeftHand  -0.0859215 3.4469 4.24987
RightShoulder  -1.08935 -6.38861 31.2047
RightArm  4.75798 -2.18238 39.2983
RightForeArm  13.6632 38.4332 8.04984
RightHand  -0.531761 6.07097 -5.70597
LeftUpLeg  -26.5141 1.20906 4.90756
LeftLeg  62.0658 0.940073 2.5412
LeftFoot  -6.62443 0.18636 -3.56745
LeftToes  2.52475e-009 -1.26109e-010 3.16044e-011
333
root  23.3778 37.5444 7.58617 174.122 47.0428 173.884
RightUpLeg  -17.5805 4.15211 -5.15337
RightLeg  36.2471 6.03583 4.46011
RightFoot  -18.5155 -0.0222706 1.65095
RightToes  -3.0268e-009 0 -3.6325e-017
Spine  21.6847 -0.135244 -1.88005
Spine1  1.63279 -0.812215 2.07574
HEad  -26.7037 -21.2749 2.84339
LeftShoulder1  -0.281959 4.20609 -34.0154
LeftArm  4.52203 2.85999 -41.6223
LeftForeArm  34.6409 -59.683 -16.0857
LeftHand  -0.0630692 4.26874 4.50186
RightShoulder  -1.00361 -6.23502 30.1946
RightArm  2.54023 0.709056 40.185
RightForeArm  15.4748 40.2738 8.50086
RightHand  -0.523022 6.39966 -5.47823
LeftUpLeg  -26.7161 2.21475 1.94966
LeftLeg  56.8512 0.655762 1.63592
LeftFoot  -6.54272 0.259557 -5.24213
LeftToes  2.52475e-009 -1.26109e-010 3.16044e-011
334
root  24.455 38.0955 7.12504 174.148 50.5075 173.896
RightUpLeg  -13.7048 5.07603 -4.07763
RightLeg  31.2238 8.43444 5.23634
RightFoot  -17.9964 0.0113521 2.2744
RightToes  -3.0268e-009 0 -3.6325e-017
Spine  19.1659 0.034501 -0.864448
Spine1  1.51201 -0.302132 1.06844
HEad  -24.7464 -20.6471 1.78832
LeftShoulder1  -0.305081 4.27246 -33.5469
LeftArm  4.45259 3.75634 -39.9843
LeftForeArm  31.0354 -52.2086 -11.9826
LeftHand  -0.0407689 4.87038 4.04445
RightShoulder  -1.0066 -6.26021 29.9647
RightArm  2.32612 4.01757 40.4237
RightForeArm  15.1105 41.885 9.05161
RightHand  -0.612544 7.21291 -5.99577
LeftUpLeg  -26.9777 2.11895 -0.332283
LeftLeg  49.7193 -0.34879 0.00788545
LeftFoot  -6.01349 0.318185 -6.07027
LeftToes  2.52475e-009 -1.26109e-010 3.16044e-011
335
root  25.5298 38.5248 6.64088 173.587 54.1342 173.797
RightUpLeg  -9.58652 5.85984 -3.17665
RightLeg  26.832 11.0365 5.81658
RightFoot  -16.9944 -0.0383713 1.56217
RightToes  -3.0268e-009 0 -3.6325e-017
Spine  17.2247 0.376874 0.232761
Spine1  1.4682 0.348152 0.162524
HEad  -22.9976 -20.0182 1.25653
LeftShoulder1  -0.309427 4.28588 -33.4253
LeftArm  4.8955 4.62867 -38.6361
LeftForeArm  28.5979 -44.5466 -9.03094
LeftHand  -0.0260693 5.35852 3.63673
RightShoulder  -0.992228 -6.25395 29.5217
RightArm  2.12257 7.28605 40.6239
RightForeArm  15.5105 43.2693 9.49801
RightHand  -0.677836 6.60447 -6.88474
LeftUpLeg  -26.2303 0.726119 -1.79936
LeftLeg  41.2983 -1.41384 -0.950393
LeftFoot  -5.96586 0.362859 -6.96184
LeftToes  2.52475e-009 -1.26109e-010 3.16044e-011
336
root  26.6259 38.7905 6.17496 172.616 58.4538 173.271
RightUpLeg  -5.96227 7.51279 -2.40431
RightLeg  23.489 13.5907 6.0668
RightFoot  -16.4783 -0.0799492 0.688409
RightToes  -3.0268e-009 0 -3.6325e-017
Spine  15.3825 0.924114 0.987089
Spine1  1.74931 1.13104 -0.688253
HEad  -21.7635 -18.2611 0.489745
LeftShoulder1  -0.333869 4.34978 -33.3224
LeftArm  6.1588 5.56404 -37.1602
LeftForeArm  25.3534 -36.967 -6.87995
LeftHand  -0.0206172 5.59597 3.42483
RightShoulder  -0.936913 -6.15184 28.8139
RightArm  2.43423 11.0089 41.3987
RightForeArm  16.3335 43.9175 9.67329
RightHand  -0.672223 6.74072 -6.77014
LeftUpLeg  -25.0242 -1.40462 -2.28539
LeftLeg  32.2218 -2.09876 -1.09098
LeftFoot  -5.50582 0.432378 -7.81224
LeftToes  2.52475e-009 -1.26109e-010 3.16044e-011
